<svg width="25" height="25" viewBox="0 0 25 25" fill="none" xmlns="http://www.w3.org/2000/svg">
<path d="M16.6667 12.5L17.2916 12.513C17.2918 12.5043 17.2918 12.4957 17.2916 12.487L16.6667 12.5ZM8.66675 12.5L8.04188 12.487C8.0417 12.4957 8.0417 12.5043 8.04188 12.513L8.66675 12.5ZM22.0417 12.5C22.0417 17.6777 17.8444 21.875 12.6667 21.875V23.125C18.5348 23.125 23.2917 18.368 23.2917 12.5H22.0417ZM12.6667 21.875C7.48908 21.875 3.29175 17.6777 3.29175 12.5H2.04175C2.04175 18.368 6.79872 23.125 12.6667 23.125V21.875ZM3.29175 12.5C3.29175 7.32233 7.48908 3.125 12.6667 3.125V1.875C6.79872 1.875 2.04175 6.63197 2.04175 12.5H3.29175ZM12.6667 3.125C17.8444 3.125 22.0417 7.32233 22.0417 12.5H23.2917C23.2917 6.63197 18.5348 1.875 12.6667 1.875V3.125ZM2.66675 13.125H22.6667V11.875H2.66675V13.125ZM12.2053 2.92151C14.6044 5.54801 15.9678 8.95652 16.0419 12.513L17.2916 12.487C17.2112 8.62755 15.7317 4.9287 13.1282 2.07849L12.2053 2.92151ZM16.0419 12.487C15.9678 16.0435 14.6044 19.452 12.2053 22.0785L13.1282 22.9215C15.7317 20.0713 17.2112 16.3725 17.2916 12.513L16.0419 12.487ZM13.1282 22.0785C10.7291 19.452 9.3657 16.0435 9.29161 12.487L8.04188 12.513C8.12229 16.3725 9.60183 20.0713 12.2053 22.9215L13.1282 22.0785ZM9.29161 12.513C9.3657 8.95652 10.7291 5.54801 13.1282 2.92151L12.2053 2.07849C9.60183 4.9287 8.12229 8.62755 8.04188 12.487L9.29161 12.513Z" fill="white"/>
</svg>
