<svg width="25" height="25" viewBox="0 0 25 25" fill="none" xmlns="http://www.w3.org/2000/svg">
<path fill-rule="evenodd" clip-rule="evenodd" d="M7.43969 1.50009C8.93041 1.48816 10.2256 2.60355 10.4343 4.08014L10.4356 4.08933C10.5523 4.97417 10.7686 5.84298 11.0805 6.67919C11.5097 7.82197 11.1587 8.78637 10.6514 9.50651C10.3805 9.89105 10.0181 10.2632 9.69292 10.5781C10.8678 12.4167 12.4299 13.9772 14.2699 15.1501L14.987 14.433L14.991 14.429C15.406 14.0186 15.988 13.7884 16.4886 13.6821C16.9886 13.5759 17.6117 13.5499 18.1545 13.7535C18.9909 14.0655 19.8599 14.282 20.7449 14.3987L20.7538 14.3999C22.2447 14.6102 23.3645 15.9272 23.3341 17.4313V20.4201C23.3341 22.2039 21.7082 23.7013 19.2505 23.4965C15.9634 23.2226 11.7753 21.1664 8.29979 17.9852C4.80613 14.7875 1.89382 10.3276 1.33928 5.1056L1.33775 5.09C1.25725 4.19923 1.62401 3.3225 2.1436 2.68924C2.66148 2.05806 3.4733 1.50101 4.44316 1.5001L7.43969 1.50009ZM8.45342 4.35637C8.38324 3.87377 7.94185 3.49524 7.45394 3.50005L7.4441 3.50014L4.44469 3.50009C4.25817 3.50043 3.96355 3.62417 3.68976 3.95785C3.41976 4.28692 3.30908 4.6562 3.32911 4.90386C3.82066 9.50486 6.40697 13.5414 9.65015 16.5099C12.9137 19.4971 16.7038 21.2774 19.4166 21.5035C20.959 21.632 21.3341 20.7961 21.3341 20.4201V17.4201C21.3341 17.4118 21.3342 17.4036 21.3344 17.3953C21.3467 16.9019 20.9661 16.4516 20.478 16.3808C19.445 16.2441 18.4307 15.9913 17.4545 15.627L17.4522 15.6261C17.3956 15.6049 17.194 15.5769 16.9041 15.6384C16.6167 15.6995 16.4441 15.8058 16.3983 15.8501L15.1312 17.1172C14.8129 17.4355 14.3211 17.5019 13.9298 17.2794C11.2698 15.7669 9.06733 13.5644 7.55481 10.9044C7.33229 10.5131 7.39868 10.0213 7.717 9.70299C7.88044 9.53955 8.03358 9.39397 8.17649 9.25811C8.51269 8.9385 8.7923 8.67269 9.01635 8.35466C9.27931 7.9814 9.33219 7.71221 9.20805 7.38196L9.20721 7.3797C8.84294 6.4035 8.59007 5.3893 8.45342 4.35637Z" fill="white"/>
</svg>
