<svg width="36" height="37" viewBox="0 0 36 37" fill="none" xmlns="http://www.w3.org/2000/svg">
<path d="M27.0222 24.0153L26.5903 23.7633L26.5845 23.7737L27.0222 24.0153ZM24.1904 25.5977L24.2196 26.0968L24.2254 26.0964L24.1904 25.5977ZM11.7977 25.597L11.7627 26.0958L11.7685 26.0961L11.7977 25.597ZM8.9801 24.0281L9.41684 23.7846L9.41381 23.7793L8.9801 24.0281ZM8.97471 12.9763L9.4095 13.2233L9.41141 13.2198L8.97471 12.9763ZM11.7999 11.4066L11.8291 11.9058L11.8337 11.9055L11.7999 11.4066ZM24.1904 11.4061L24.1566 11.905L24.1613 11.9052L24.1904 11.4061ZM27.0182 12.9722L26.5808 13.2146L26.5846 13.2212L27.0182 12.9722ZM16.2 15.8L16.4572 15.3712L15.7 14.9169V15.8H16.2ZM20.7 18.5L20.9572 18.9287L21.6718 18.5L20.9572 18.0712L20.7 18.5ZM16.2 21.2H15.7V22.0831L16.4572 21.6287L16.2 21.2ZM27.4 18.4975C27.4 21.2621 27.1308 22.8371 26.5904 23.7634L27.4541 24.2673C28.1436 23.0857 28.4 21.2618 28.4 18.4975H27.4ZM26.5845 23.7737C26.3052 24.2796 26.0286 24.5664 25.691 24.7501C25.34 24.941 24.8722 25.0487 24.1555 25.0989L24.2254 26.0964C24.9925 26.0427 25.6302 25.9215 26.1689 25.6285C26.721 25.3281 27.1183 24.8758 27.46 24.257L26.5845 23.7737ZM24.1613 25.0985C23.1306 25.1587 20.5159 25.2 18.0024 25.2V26.2C20.5144 26.2 23.1561 26.1589 24.2196 26.0968L24.1613 25.0985ZM18.0024 25.2C15.4832 25.2 12.8672 25.1587 11.8269 25.0978L11.7685 26.0961C12.8417 26.1589 15.4847 26.2 18.0024 26.2V25.2ZM11.8328 25.0982C11.1233 25.0484 10.6583 24.9411 10.3084 24.7514C9.97173 24.5689 9.69536 24.2843 9.41681 23.7846L8.54338 24.2716C8.88503 24.8844 9.28232 25.3326 9.83179 25.6305C10.3681 25.9213 11.0018 26.0423 11.7627 26.0957L11.8328 25.0982ZM9.41381 23.7793C8.8692 22.8299 8.59998 21.2446 8.59998 18.5075H7.59998C7.59998 21.249 7.85778 23.0765 8.54639 24.2769L9.41381 23.7793ZM8.59998 18.5075C8.59998 15.7552 8.86777 14.1771 9.40949 13.2232L8.53994 12.7294C7.85667 13.9325 7.59998 15.7501 7.59998 18.5075H8.59998ZM9.41141 13.2198C9.69414 12.7128 9.9754 12.4238 10.314 12.2407C10.6647 12.0511 11.1281 11.9468 11.8291 11.9058L11.7707 10.9075C11.0138 10.9518 10.3787 11.0689 9.8384 11.361C9.28602 11.6597 8.88365 12.113 8.53801 12.7328L9.41141 13.2198ZM11.8337 11.9055C12.8223 11.8384 15.2938 11.8 18.0024 11.8V10.8C15.3 10.8 12.7942 10.838 11.766 10.9078L11.8337 11.9055ZM18.0024 11.8C20.7051 11.8 23.1755 11.8385 24.1566 11.905L24.2243 10.9072C23.2036 10.8381 20.6989 10.8 18.0024 10.8V11.8ZM24.1613 11.9052C24.8669 11.9465 25.3323 12.0508 25.6832 12.2399C26.0216 12.4224 26.3011 12.7099 26.5808 13.2146L27.4555 12.7298C27.1124 12.1108 26.7111 11.658 26.1578 11.3597C25.6171 11.0682 24.9801 10.9514 24.2196 10.9069L24.1613 11.9052ZM26.5846 13.2212C27.134 14.1778 27.4 15.7461 27.4 18.4975H28.4C28.4 15.7419 28.1454 13.9311 27.4517 12.7232L26.5846 13.2212ZM15.9427 16.2287L20.4427 18.9287L20.9572 18.0712L16.4572 15.3712L15.9427 16.2287ZM20.4427 18.0712L15.9427 20.7712L16.4572 21.6287L20.9572 18.9287L20.4427 18.0712ZM16.7 21.2V15.8H15.7V21.2H16.7Z" fill="white"/>
</svg>
